<svg xmlns="http://www.w3.org/2000/svg" width="67" height="59" viewBox="0 0 67 59" fill="none">
  <path d="M55.0873 19.1231C54.3743 18.881 53.6552 18.6567 52.9308 18.4504C53.0525 17.9582 53.1645 17.472 53.264 16.9943C54.8966 9.15043 53.8293 2.83123 50.1838 0.750644C46.6885 -1.24394 40.9723 0.835867 35.1993 5.8086C34.6304 6.29956 34.0741 6.80467 33.5309 7.32344C33.1673 6.97848 32.7972 6.6402 32.4209 6.3088C26.3705 0.991807 20.306 -1.24912 16.6644 0.837421C13.1723 2.83822 12.1383 8.77871 13.6081 16.2126C13.7543 16.9488 13.9194 17.6812 14.1032 18.4092C13.2448 18.6506 12.4165 18.9076 11.6237 19.1811C4.53009 21.629 0 25.4651 0 29.4442C0 33.5538 4.86326 37.6758 12.2516 40.1753C12.8506 40.3771 13.4545 40.5641 14.0629 40.7361C13.8653 41.5201 13.6899 42.3094 13.5369 43.1032C12.1356 50.408 13.2299 56.2081 16.7126 58.1962C20.3096 60.2493 26.347 58.1392 32.2254 53.053C32.7021 52.6395 33.1683 52.2143 33.6235 51.7778C34.2118 52.3395 34.8157 52.8849 35.4346 53.4134C41.1291 58.263 46.7529 60.2214 50.2322 58.2278C53.8259 56.1687 54.9939 49.9379 53.4775 42.3571C53.3581 41.7632 53.2241 41.1723 53.0758 40.5848C53.4998 40.4605 53.9159 40.3325 54.3216 40.1994C62.0025 37.6808 67 33.6087 67 29.4442C67 25.4506 62.3236 21.5886 55.0873 19.1231ZM53.4215 37.5106C53.0551 37.6305 52.6793 37.7463 52.2961 37.859C51.4481 35.202 50.3039 32.377 48.9035 29.4579C50.2398 26.6085 51.3401 23.8194 52.1642 21.1798C52.8497 21.3762 53.5147 21.5832 54.1559 21.8015C60.356 23.9142 64.1378 27.0374 64.1378 29.4442C64.1378 32.0076 60.0535 35.3354 53.4215 37.5106ZM50.6698 42.9073C51.3403 46.2593 51.4358 49.29 50.9917 51.6594C50.5928 53.7884 49.7904 55.2077 48.798 55.7763C46.6867 56.986 42.1713 55.4136 37.3015 51.2659C36.7258 50.7746 36.164 50.2676 35.6168 49.7454C37.5048 47.7018 39.3916 45.3262 41.233 42.6877C44.472 42.4033 47.5321 41.938 50.3071 41.3031C50.4407 41.835 50.5617 42.3698 50.6698 42.9073ZM22.8418 55.5672C20.7789 56.2881 19.1358 56.3089 18.1426 55.7421C16.0292 54.5358 15.1506 49.8785 16.349 43.6316C16.4915 42.8934 16.6546 42.1593 16.8382 41.43C19.5826 42.031 22.6204 42.4631 25.867 42.7237C27.721 45.3055 29.6622 47.6785 31.6185 49.7565C31.2027 50.1547 30.7772 50.5427 30.3421 50.9201C27.7424 53.1691 25.1376 54.7647 22.8418 55.5672ZM13.1775 37.4948C9.9105 36.3895 7.21245 34.9531 5.36314 33.3857C3.70123 31.9773 2.86242 30.5787 2.86242 29.4442C2.86242 27.0294 6.49952 23.9495 12.5659 21.8562C13.3021 21.6023 14.0726 21.3627 14.8722 21.1379C15.7107 23.837 16.8105 26.6592 18.1376 29.5131C16.7932 32.4091 15.6777 35.2764 14.8311 38.0074C14.2757 37.8499 13.7244 37.679 13.1775 37.4948ZM16.4171 15.6683C15.158 9.29938 15.9942 4.49502 18.0986 3.2892C20.34 2.0049 25.2964 3.83603 30.5206 8.4272C30.8613 8.72726 31.1964 9.03341 31.5259 9.34549C29.5792 11.4144 27.6558 13.7698 25.8183 16.3364C22.6672 16.6255 19.6509 17.0897 16.8777 17.7116C16.7069 17.0345 16.5533 16.353 16.4171 15.6683ZM45.3179 22.7317C44.6629 21.6119 43.9836 20.5062 43.2804 19.4153C45.4181 19.6829 47.4664 20.038 49.3897 20.4722C48.8124 22.3041 48.0927 24.2191 47.2455 26.1826C46.6262 25.0197 45.9836 23.8692 45.3179 22.7317ZM33.5322 11.3701C34.8523 12.7858 36.1745 14.3661 37.475 16.081C34.8369 15.9576 32.1943 15.9571 29.5562 16.0794C30.8579 14.3804 32.1914 12.8021 33.5322 11.3701ZM21.6708 22.7512C21.0135 23.8795 20.3828 25.0228 19.7794 26.1803C18.9461 24.2238 18.2329 22.2999 17.6506 20.4421C19.5622 20.0188 21.6007 19.6728 23.7248 19.4101C23.0138 20.5076 22.329 21.6218 21.6708 22.7512ZM23.7858 39.6797C21.5913 39.4373 19.5221 39.1091 17.6111 38.6972C18.2025 36.8062 18.9314 34.8414 19.7828 32.843C20.3886 34.0013 21.0219 35.1453 21.6821 36.2742C22.361 37.4347 23.064 38.5713 23.7858 39.6797ZM33.6112 47.7177C32.2545 46.2691 30.9014 44.6665 29.58 42.9428C30.8629 42.9926 32.1707 43.0179 33.5 43.0179C34.8657 43.0179 36.2156 42.9876 37.5443 42.9291C36.2397 44.6838 34.9224 46.2888 33.6112 47.7177ZM47.2724 32.7409C48.168 34.7614 48.9228 36.7158 49.5222 38.5744C47.5797 39.0132 45.4823 39.3666 43.2723 39.629C43.9805 38.5178 44.6662 37.3929 45.3292 36.2548C46.0032 35.0979 46.6511 33.9263 47.2724 32.7409ZM42.8499 34.8394C41.835 36.5843 40.7631 38.2962 39.6357 39.9722C37.5937 40.1153 35.5472 40.1864 33.5 40.1854C31.4149 40.1854 29.3868 40.1211 27.4339 39.9958C26.2771 38.3236 25.1847 36.6088 24.159 34.8549C23.1381 33.1103 22.1847 31.328 21.3005 29.5118C22.1825 27.6951 23.1332 25.9119 24.1506 24.166L24.1504 24.1663C25.1674 22.4199 26.2511 20.7124 27.3991 19.0475C29.3915 18.8982 31.4348 18.8205 33.4997 18.8205C35.5741 18.8205 37.6202 18.899 39.6122 19.0493C40.7486 20.7117 41.8253 22.4134 42.8405 24.151C43.8613 25.8931 44.8246 27.6675 45.7288 29.4716C44.8339 31.2941 43.8736 33.0845 42.8499 34.8394ZM48.7543 3.20476C50.9977 4.48544 51.8703 9.64985 50.4607 16.4224C50.3707 16.8544 50.2696 17.2945 50.1597 17.7409C47.3797 17.1057 44.3613 16.6335 41.2011 16.34C39.3601 13.7452 37.4525 11.3862 35.5375 9.34393C36.0394 8.8651 36.5532 8.39869 37.0785 7.94513C42.025 3.68475 46.648 2.00257 48.7543 3.20476ZM33.5 23.5226C36.8042 23.5226 39.4829 26.1738 39.4829 29.4442C39.4829 32.7145 36.8042 35.3657 33.5 35.3657C30.1958 35.3657 27.5171 32.7145 27.5171 29.4442C27.5171 26.1738 30.1958 23.5226 33.5 23.5226Z" fill="#00D8FF"/>
</svg>